<svg xmlns="http://www.w3.org/2000/svg" viewBox="0 0 64 64">
  <rect width="64" height="64" rx="16" fill="#3A1E26"/>
  <path
    d="M32 51S12 37.2 12 23.6C12 15.9 17.6 10 24.7 10c4.2 0 7.6 2.1 9.3 5.5C35.7 12.1 39.1 10 43.3 10 50.4 10 56 15.9 56 23.6 56 37.2 32 51 32 51Z"
    fill="#C4828E"
  />
  <path
    d="M32 45.5S17.2 35.2 17.2 24.8c0-5.6 4-9.8 9.1-9.8 3.2 0 5.6 1.7 6.9 4.3 1.3-2.6 3.7-4.3 6.9-4.3 5.1 0 9.1 4.2 9.1 9.8 0 10.4-17.2 20.7-17.2 20.7Z"
    fill="#FFF0F4"
    opacity="0.32"
  />
</svg>
